HIERARCHY
ROOT hip
{
	OFFSET 0.000000 0.000000 0.000000 
	CHANNELS 6 Xposition Yposition Zposition Xrotation Zrotation Yrotation
	JOINT abdomen
	{
		OFFSET 0.000000 3.402643 0.000000 
		CHANNELS 3 Xrotation Zrotation Yrotation
		JOINT chest
		{
			OFFSET 0.000000 8.438565 -0.680529 
			CHANNELS 3 Xrotation Zrotation Yrotation
			JOINT neck
			{
				OFFSET 0.000000 10.207942 -0.272212 
				CHANNELS 3 Xrotation Zrotation Yrotation
				JOINT head
				{
					OFFSET 0.000000 3.130431 0.000000 
					CHANNELS 3 Xrotation Zrotation Yrotation
					End Site
					{
						OFFSET 0.000000 3.130435 0.000000 
					}
				}
			}
			JOINT lCollar
			{
				OFFSET 3.470700 6.669187 -0.816635 
				CHANNELS 3 Yrotation Zrotation Xrotation
				JOINT lShldr
				{
					OFFSET 3.198488 0.000000 0.000000 
					CHANNELS 3 Zrotation Yrotation Xrotation
					JOINT lForeArm
					{
						OFFSET 10.139888 0.000000 0.000000 
						CHANNELS 3 Yrotation Zrotation Xrotation
						JOINT lHand
						{
							OFFSET 8.370511 0.000000 0.000000 
							CHANNELS 3 Zrotation Yrotation Xrotation
							End Site
							{
								OFFSET 4.083176 0.000000 0.000000 
							}
						}
					}
				}
			}
			JOINT rCollar
			{
				OFFSET -3.470700 6.669187 -0.816635 
				CHANNELS 3 Yrotation Zrotation Xrotation
				JOINT rShldr
				{
					OFFSET -3.198488 0.000000 0.000000 
					CHANNELS 3 Zrotation Yrotation Xrotation
					JOINT rForeArm
					{
						OFFSET -10.139888 0.000000 0.000000 
						CHANNELS 3 Yrotation Zrotation Xrotation
						JOINT rHand
						{
							OFFSET -8.370511 0.000000 0.000000 
							CHANNELS 3 Zrotation Yrotation Xrotation
							End Site
							{
								OFFSET -4.083176 0.000000 0.000000 
							}
						}
					}
				}
			}
		}
	}
	JOINT lThigh
	{
		OFFSET 5.308129 -1.633274 1.361059 
		CHANNELS 3 Xrotation Zrotation Yrotation
		JOINT lShin
		{
			OFFSET -2.041588 -20.007561 0.000000 
			CHANNELS 3 Xrotation Zrotation Yrotation
			JOINT lFoot
			{
				OFFSET 0.000000 -19.190928 -1.224953 
				CHANNELS 3 Xrotation Yrotation Zrotation
				End Site
				{
					OFFSET 0.000000 -2.449906 4.627600 
				}
			}
		}
	}
	JOINT rThigh
	{
		OFFSET -5.308129 -1.633274 1.361059 
		CHANNELS 3 Xrotation Zrotation Yrotation
		JOINT rShin
		{
			OFFSET 2.041588 -20.007561 0.000000 
			CHANNELS 3 Xrotation Zrotation Yrotation
			JOINT rFoot
			{
				OFFSET 0.000000 -19.190928 -1.224953 
				CHANNELS 3 Xrotation Yrotation Zrotation
				End Site
				{
					OFFSET 0.000000 -2.449906 4.627600 
				}
			}
		}
	}
}
MOTION
Frames: 8
Frame Time: 0.033333
-65.632088 49.024670 12.166685 -5.873497 9.067987 84.162735 0.000000 0.000000 0.000000 5.315695 -1.083746 -1.201511 11.888933 1.110822 -3.809202 23.037411 -9.931063 -0.626226 -9.199772 7.630996 5.770392 -72.598999 10.641134 5.018591 -48.598682 -4.838847 18.923906 -2.479928 9.260379 -3.705485 0.228931 -16.212017 5.512902 -23.790140 63.256001 -123.788315 97.654251 12.236978 -12.804035 -8.096210 3.625330 -3.899598 2.556617 7.799358 9.886224 24.366411 -2.743978 21.923067 -16.120249 0.787836 -5.338593 -6.481282 -6.675742 -6.284812 8.846211 5.477596 -1.259020 14.564045 0.508588 4.225824 
-66.130188 49.114388 12.398979 -6.111380 9.238333 84.710266 0.000000 0.000000 0.000000 6.369071 -1.308419 -0.937925 13.328822 1.285977 -3.965816 22.651312 -10.155830 -0.526688 -9.802389 8.546930 6.831666 -73.152061 2.693997 5.621703 -49.246811 -4.445738 18.376280 -2.721446 8.609929 -3.701558 0.080395 -15.562905 6.427384 -22.506931 62.938190 -123.648239 97.918518 12.700326 -12.480801 -9.034958 3.119695 -3.929617 2.333050 8.494074 10.066195 23.996710 -2.724978 20.585520 -15.390604 0.654194 -4.940223 -6.717112 -6.609311 -6.159359 10.265667 4.927202 -3.630832 14.690938 0.522722 4.197031 
-66.663925 49.175438 12.612008 -5.981462 9.328046 85.036064 0.000000 0.000000 0.000000 7.462386 -1.953013 -0.615875 14.987365 1.743221 -4.259700 21.864122 -10.996029 -0.199177 -10.152826 9.551786 7.907495 -74.412064 -4.969983 5.487923 -49.825867 -3.703678 18.653940 -2.565388 8.013209 -3.666200 0.578535 -15.403695 7.476775 -20.853008 62.061108 -123.804062 98.040649 13.416940 -12.134120 -10.855991 2.483911 -3.980526 1.970250 8.665008 9.860990 23.498472 -2.568713 19.810160 -14.458387 0.615704 -4.752664 -7.037580 -6.890345 -6.203061 11.603226 4.380569 -6.052237 15.188374 0.549549 4.264045 
-67.257599 49.242199 12.807045 -5.785578 9.250932 85.603989 0.000000 0.000000 0.000000 8.675054 -2.441190 -0.762691 16.918728 1.733260 -4.357312 20.493927 -10.439365 0.237573 -10.623741 10.191723 9.017126 -75.589218 -12.124122 4.714435 -50.199318 -2.796260 19.149290 -2.456902 7.207705 -3.642534 1.068240 -15.906178 8.663583 -19.570850 61.774616 -124.757462 98.347816 14.122126 -12.380443 -12.876747 1.772936 -4.007632 1.306737 8.706003 9.561823 22.840122 -2.449436 19.543715 -13.309152 0.501425 -4.493292 -7.428468 -7.291036 -6.481336 12.670572 3.874344 -9.341326 15.765728 0.570594 4.317760 
-67.900620 49.291466 13.032640 -5.710714 8.837121 86.113007 0.000000 0.000000 0.000000 9.967034 -2.470449 -0.821234 19.246668 1.431419 -4.347028 17.335348 -9.813986 0.563475 -10.695880 10.165766 10.198417 -75.792061 -19.104004 4.340377 -50.871902 -2.168535 18.730169 -1.816766 6.190075 -3.585277 1.269465 -16.853668 9.887870 -18.998262 62.026451 -126.409386 99.050400 14.833108 -12.499426 -14.981384 0.998127 -4.025546 0.193862 9.016555 9.385201 22.413811 -2.402335 19.130768 -12.223680 0.465746 -4.227256 -8.055260 -7.400779 -6.454510 13.538174 3.375347 -12.731781 15.856200 0.574466 4.207912 
-68.501961 49.297752 13.287370 -5.713924 7.976902 86.344994 0.000000 0.000000 0.000000 10.980937 -2.597438 -0.743195 21.280136 1.655361 -4.357033 13.922103 -9.568645 1.078862 -10.707066 10.955676 11.178858 -76.709801 -24.976204 4.011243 -52.110592 -1.487537 18.487959 -1.306911 5.223247 -3.541971 1.603955 -17.228117 10.861838 -19.730154 62.148029 -128.561905 99.571449 15.191452 -12.120045 -16.055511 0.652095 -4.027321 -1.464517 9.446067 8.916738 22.355690 -2.146733 18.518442 -11.294095 0.442001 -4.326982 -8.807064 -7.205536 -6.155470 13.846874 2.802433 -16.001263 16.296265 0.596918 4.214803 
-69.116264 49.303543 13.539307 -5.455830 6.914506 86.820915 0.000000 0.000000 0.000000 11.865160 -2.753630 -0.811488 22.779325 1.820753 -4.416173 11.415438 -8.913195 1.453008 -11.248934 11.673929 12.068847 -77.839333 -29.387337 3.220458 -53.735306 -0.695421 19.840183 -1.124469 4.177903 -3.510574 1.773549 -17.149967 11.705107 -21.383766 62.445114 -130.162064 99.903732 15.039147 -11.194463 -16.112541 0.631965 -4.013101 -3.261282 9.655332 8.591121 21.984390 -2.404132 18.289162 -10.309549 0.366933 -3.941815 -9.529825 -7.254573 -6.050799 13.849174 2.377850 -19.540384 16.323042 0.601056 4.324081 
-69.685349 49.307575 13.821210 -5.200125 5.847951 87.039024 0.000000 0.000000 0.000000 12.767524 -2.538955 -0.528124 23.672726 1.869338 -4.455210 9.589923 -9.206029 1.462626 -11.168678 11.282874 12.916028 -78.115990 -33.097599 2.903698 -55.318172 -0.292593 21.058451 -0.842248 3.392683 -3.500880 1.919657 -17.603773 12.533819 -24.128721 62.673107 -132.249710 99.827507 14.696301 -10.339828 -15.230576 1.523371 -4.084980 -4.871568 9.907081 8.391739 21.532030 -2.744164 18.364462 -9.310179 0.301734 -3.639285 -9.575069 -7.192779 -5.963476 12.938065 2.364872 -20.896564 15.151799 0.526033 4.279040 
